<svg xmlns="http://www.w3.org/2000/svg" xmlns:xlink="http://www.w3.org/1999/xlink" version="1.1" class="marks" width="1039" height="555" viewBox="0 0 1039 555"><rect width="1039" height="555" fill="white"/><g fill="none" stroke-miterlimit="10" transform="translate(44,5)"><g class="mark-group role-frame root" role="graphics-object" aria-roledescription="group mark container"><g transform="translate(0,0)"><path class="background" aria-hidden="true" d="M0.5,0.5h800v500h-800Z" stroke="#ddd"/><g><g class="mark-group role-axis" role="graphics-symbol" aria-roledescription="axis" aria-label="Y-axis for a linear scale with values from 0 to 350"><g transform="translate(0.5,0.5)"><path class="background" aria-hidden="true" d="M0,0h0v0h0Z" pointer-events="none"/><g><g class="mark-rule role-axis-grid" pointer-events="none"><line transform="translate(0,500)" x2="800" y2="0" stroke="#ddd" stroke-width="1" opacity="1"/><line transform="translate(0,471)" x2="800" y2="0" stroke="#ddd" stroke-width="1" opacity="1"/><line transform="translate(0,443)" x2="800" y2="0" stroke="#ddd" stroke-width="1" opacity="1"/><line transform="translate(0,414)" x2="800" y2="0" stroke="#ddd" stroke-width="1" opacity="1"/><line transform="translate(0,386)" x2="800" y2="0" stroke="#ddd" stroke-width="1" opacity="1"/><line transform="translate(0,357)" x2="800" y2="0" stroke="#ddd" stroke-width="1" opacity="1"/><line transform="translate(0,329)" x2="800" y2="0" stroke="#ddd" stroke-width="1" opacity="1"/><line transform="translate(0,300)" x2="800" y2="0" stroke="#ddd" stroke-width="1" opacity="1"/><line transform="translate(0,271)" x2="800" y2="0" stroke="#ddd" stroke-width="1" opacity="1"/><line transform="translate(0,243)" x2="800" y2="0" stroke="#ddd" stroke-width="1" opacity="1"/><line transform="translate(0,214)" x2="800" y2="0" stroke="#ddd" stroke-width="1" opacity="1"/><line transform="translate(0,186)" x2="800" y2="0" stroke="#ddd" stroke-width="1" opacity="1"/><line transform="translate(0,157)" x2="800" y2="0" stroke="#ddd" stroke-width="1" opacity="1"/><line transform="translate(0,129)" x2="800" y2="0" stroke="#ddd" stroke-width="1" opacity="1"/><line transform="translate(0,100)" x2="800" y2="0" stroke="#ddd" stroke-width="1" opacity="1"/><line transform="translate(0,71)" x2="800" y2="0" stroke="#ddd" stroke-width="1" opacity="1"/><line transform="translate(0,43)" x2="800" y2="0" stroke="#ddd" stroke-width="1" opacity="1"/><line transform="translate(0,14)" x2="800" y2="0" stroke="#ddd" stroke-width="1" opacity="1"/></g></g><path class="foreground" aria-hidden="true" d="" pointer-events="none" display="none"/></g></g><g class="mark-group role-axis" role="graphics-symbol" aria-roledescription="axis" aria-label="X-axis titled 'Year' for a discrete scale with 10 values: 2011, 2012, 2013, 2014, 2015, ending with 2020"><g transform="translate(0.5,500.5)"><path class="background" aria-hidden="true" d="M0,0h0v0h0Z" pointer-events="none"/><g><g class="mark-rule role-axis-tick" pointer-events="none"><line transform="translate(40,0)" x2="0" y2="5" stroke="#888" stroke-width="1" opacity="1"/><line transform="translate(120,0)" x2="0" y2="5" stroke="#888" stroke-width="1" opacity="1"/><line transform="translate(200,0)" x2="0" y2="5" stroke="#888" stroke-width="1" opacity="1"/><line transform="translate(280,0)" x2="0" y2="5" stroke="#888" stroke-width="1" opacity="1"/><line transform="translate(360,0)" x2="0" y2="5" stroke="#888" stroke-width="1" opacity="1"/><line transform="translate(440,0)" x2="0" y2="5" stroke="#888" stroke-width="1" opacity="1"/><line transform="translate(520,0)" x2="0" y2="5" stroke="#888" stroke-width="1" opacity="1"/><line transform="translate(600,0)" x2="0" y2="5" stroke="#888" stroke-width="1" opacity="1"/><line transform="translate(680,0)" x2="0" y2="5" stroke="#888" stroke-width="1" opacity="1"/><line transform="translate(760,0)" x2="0" y2="5" stroke="#888" stroke-width="1" opacity="1"/></g><g class="mark-text role-axis-label" pointer-events="none"><text text-anchor="end" transform="translate(40,7) rotate(270) translate(0,3)" font-family="sans-serif" font-size="10px" fill="#000" opacity="1">2011</text><text text-anchor="end" transform="translate(120,7) rotate(270) translate(0,3)" font-family="sans-serif" font-size="10px" fill="#000" opacity="1">2012</text><text text-anchor="end" transform="translate(200,7) rotate(270) translate(0,3)" font-family="sans-serif" font-size="10px" fill="#000" opacity="1">2013</text><text text-anchor="end" transform="translate(280,7) rotate(270) translate(0,3)" font-family="sans-serif" font-size="10px" fill="#000" opacity="1">2014</text><text text-anchor="end" transform="translate(360,7) rotate(270) translate(0,3)" font-family="sans-serif" font-size="10px" fill="#000" opacity="1">2015</text><text text-anchor="end" transform="translate(440,7) rotate(270) translate(0,3)" font-family="sans-serif" font-size="10px" fill="#000" opacity="1">2016</text><text text-anchor="end" transform="translate(520,7) rotate(270) translate(0,3)" font-family="sans-serif" font-size="10px" fill="#000" opacity="1">2017</text><text text-anchor="end" transform="translate(600,7) rotate(270) translate(0,3)" font-family="sans-serif" font-size="10px" fill="#000" opacity="1">2018</text><text text-anchor="end" transform="translate(680,7) rotate(270) translate(0,3)" font-family="sans-serif" font-size="10px" fill="#000" opacity="1">2019</text><text text-anchor="end" transform="translate(760,7) rotate(270) translate(0,3)" font-family="sans-serif" font-size="10px" fill="#000" opacity="1">2020</text></g><g class="mark-rule role-axis-domain" pointer-events="none"><line transform="translate(0,0)" x2="800" y2="0" stroke="#888" stroke-width="1" opacity="1"/></g><g class="mark-text role-axis-title" pointer-events="none"><text text-anchor="middle" transform="translate(400,42.24609375)" font-family="sans-serif" font-size="11px" font-weight="bold" fill="#000" opacity="1">Year</text></g></g><path class="foreground" aria-hidden="true" d="" pointer-events="none" display="none"/></g></g><g class="mark-group role-axis" role="graphics-symbol" aria-roledescription="axis" aria-label="Y-axis titled 'Count' for a linear scale with values from 0 to 350"><g transform="translate(0.5,0.5)"><path class="background" aria-hidden="true" d="M0,0h0v0h0Z" pointer-events="none"/><g><g class="mark-rule role-axis-tick" pointer-events="none"><line transform="translate(0,500)" x2="-5" y2="0" stroke="#888" stroke-width="1" opacity="1"/><line transform="translate(0,471)" x2="-5" y2="0" stroke="#888" stroke-width="1" opacity="1"/><line transform="translate(0,443)" x2="-5" y2="0" stroke="#888" stroke-width="1" opacity="1"/><line transform="translate(0,414)" x2="-5" y2="0" stroke="#888" stroke-width="1" opacity="1"/><line transform="translate(0,386)" x2="-5" y2="0" stroke="#888" stroke-width="1" opacity="1"/><line transform="translate(0,357)" x2="-5" y2="0" stroke="#888" stroke-width="1" opacity="1"/><line transform="translate(0,329)" x2="-5" y2="0" stroke="#888" stroke-width="1" opacity="1"/><line transform="translate(0,300)" x2="-5" y2="0" stroke="#888" stroke-width="1" opacity="1"/><line transform="translate(0,271)" x2="-5" y2="0" stroke="#888" stroke-width="1" opacity="1"/><line transform="translate(0,243)" x2="-5" y2="0" stroke="#888" stroke-width="1" opacity="1"/><line transform="translate(0,214)" x2="-5" y2="0" stroke="#888" stroke-width="1" opacity="1"/><line transform="translate(0,186)" x2="-5" y2="0" stroke="#888" stroke-width="1" opacity="1"/><line transform="translate(0,157)" x2="-5" y2="0" stroke="#888" stroke-width="1" opacity="1"/><line transform="translate(0,129)" x2="-5" y2="0" stroke="#888" stroke-width="1" opacity="1"/><line transform="translate(0,100)" x2="-5" y2="0" stroke="#888" stroke-width="1" opacity="1"/><line transform="translate(0,71)" x2="-5" y2="0" stroke="#888" stroke-width="1" opacity="1"/><line transform="translate(0,43)" x2="-5" y2="0" stroke="#888" stroke-width="1" opacity="1"/><line transform="translate(0,14)" x2="-5" y2="0" stroke="#888" stroke-width="1" opacity="1"/></g><g class="mark-text role-axis-label" pointer-events="none"><text text-anchor="end" transform="translate(-7,503)" font-family="sans-serif" font-size="10px" fill="#000" opacity="1">0</text><text text-anchor="end" transform="translate(-7,474.42857142857144)" font-family="sans-serif" font-size="10px" fill="#000" opacity="1">20</text><text text-anchor="end" transform="translate(-7,445.85714285714283)" font-family="sans-serif" font-size="10px" fill="#000" opacity="1">40</text><text text-anchor="end" transform="translate(-7,417.2857142857143)" font-family="sans-serif" font-size="10px" fill="#000" opacity="1">60</text><text text-anchor="end" transform="translate(-7,388.7142857142857)" font-family="sans-serif" font-size="10px" fill="#000" opacity="1">80</text><text text-anchor="end" transform="translate(-7,360.14285714285717)" font-family="sans-serif" font-size="10px" fill="#000" opacity="1">100</text><text text-anchor="end" transform="translate(-7,331.57142857142856)" font-family="sans-serif" font-size="10px" fill="#000" opacity="1">120</text><text text-anchor="end" transform="translate(-7,303)" font-family="sans-serif" font-size="10px" fill="#000" opacity="1">140</text><text text-anchor="end" transform="translate(-7,274.42857142857144)" font-family="sans-serif" font-size="10px" fill="#000" opacity="1">160</text><text text-anchor="end" transform="translate(-7,245.8571428571429)" font-family="sans-serif" font-size="10px" fill="#000" opacity="1">180</text><text text-anchor="end" transform="translate(-7,217.2857142857143)" font-family="sans-serif" font-size="10px" fill="#000" opacity="1">200</text><text text-anchor="end" transform="translate(-7,188.71428571428572)" font-family="sans-serif" font-size="10px" fill="#000" opacity="1">220</text><text text-anchor="end" transform="translate(-7,160.14285714285714)" font-family="sans-serif" font-size="10px" fill="#000" opacity="1">240</text><text text-anchor="end" transform="translate(-7,131.57142857142856)" font-family="sans-serif" font-size="10px" fill="#000" opacity="1">260</text><text text-anchor="end" transform="translate(-7,102.99999999999997)" font-family="sans-serif" font-size="10px" fill="#000" opacity="1">280</text><text text-anchor="end" transform="translate(-7,74.42857142857146)" font-family="sans-serif" font-size="10px" fill="#000" opacity="1">300</text><text text-anchor="end" transform="translate(-7,45.85714285714287)" font-family="sans-serif" font-size="10px" fill="#000" opacity="1">320</text><text text-anchor="end" transform="translate(-7,17.285714285714292)" font-family="sans-serif" font-size="10px" fill="#000" opacity="1">340</text></g><g class="mark-rule role-axis-domain" pointer-events="none"><line transform="translate(0,500)" x2="0" y2="-500" stroke="#888" stroke-width="1" opacity="1"/></g><g class="mark-text role-axis-title" pointer-events="none"><text text-anchor="middle" transform="translate(-27.6845703125,250) rotate(-90) translate(0,-2)" font-family="sans-serif" font-size="11px" font-weight="bold" fill="#000" opacity="1">Count</text></g></g><path class="foreground" aria-hidden="true" d="" pointer-events="none" display="none"/></g></g><g class="mark-group role-scope layer_0_layer_0_pathgroup" role="graphics-object" aria-roledescription="group mark container"><g transform="translate(0,0)"><path class="background" aria-hidden="true" d="M0,0h800v500h-800Z"/><g><g class="mark-line role-mark layer_0_layer_0_marks" clip-path="url(#clip10)" role="graphics-symbol" aria-roledescription="line mark container"><path d="M40,405.71428571428567L120,391.42857142857144L200,410.00000000000006L280,318.57142857142856L360,298.5714285714286L440,381.42857142857144L520,392.85714285714283L600,382.85714285714283L680,421.42857142857144" stroke="#f58518" stroke-width="2" stroke-dasharray="2,1"/></g></g><path class="foreground" aria-hidden="true" d="" display="none"/></g><g transform="translate(0,0)"><path class="background" aria-hidden="true" d="M0,0h800v500h-800Z"/><g><g class="mark-line role-mark layer_0_layer_0_marks" clip-path="url(#clip11)" role="graphics-symbol" aria-roledescription="line mark container"><path d="M40,194.28571428571428L120,24.2857142857143L200,135.71428571428572L280,70L360,20.000000000000018L440,120L520,168.57142857142858L600,158.57142857142858L680,231.42857142857142L760,398.57142857142856" stroke="#4c78a8" stroke-width="2" stroke-dasharray="1,0"/></g></g><path class="foreground" aria-hidden="true" d="" display="none"/></g><g transform="translate(0,0)"><path class="background" aria-hidden="true" d="M0,0h800v500h-800Z"/><g><g class="mark-line role-mark layer_0_layer_0_marks" clip-path="url(#clip12)" role="graphics-symbol" aria-roledescription="line mark container"><path d="M40,454.2857142857143L120,447.1428571428571L200,477.14285714285717" stroke="#eeca3b" stroke-width="2" stroke-dasharray="4,2"/></g></g><path class="foreground" aria-hidden="true" d="" display="none"/></g><g transform="translate(0,0)"><path class="background" aria-hidden="true" d="M0,0h800v500h-800Z"/><g><g class="mark-line role-mark layer_0_layer_0_marks" clip-path="url(#clip13)" role="graphics-symbol" aria-roledescription="line mark container"><path d="M200,351.42857142857144L280,422.8571428571429L360,421.42857142857144L440,435.7142857142857L520,437.14285714285717L600,454.2857142857143L680,454.2857142857143L760,458.57142857142856" stroke="#e45756" stroke-width="2" stroke-dasharray="1,2,4,2"/></g></g><path class="foreground" aria-hidden="true" d="" display="none"/></g><g transform="translate(0,0)"><path class="background" aria-hidden="true" d="M0,0h800v500h-800Z"/><g><g class="mark-line role-mark layer_0_layer_0_marks" clip-path="url(#clip14)" role="graphics-symbol" aria-roledescription="line mark container"><path d="M280,327.14285714285717L360,324.2857142857143L440,458.57142857142856L520,444.2857142857143L600,445.7142857142857L680,497.14285714285717" stroke="#72b7b2" stroke-width="2" stroke-dasharray="4,2"/></g></g><path class="foreground" aria-hidden="true" d="" display="none"/></g><g transform="translate(0,0)"><path class="background" aria-hidden="true" d="M0,0h800v500h-800Z"/><g><g class="mark-line role-mark layer_0_layer_0_marks" clip-path="url(#clip15)" role="graphics-symbol" aria-roledescription="line mark container"><path d="M760,457.1428571428571Z" stroke="#b279a2" stroke-width="2" stroke-dasharray="1,0"/></g></g><path class="foreground" aria-hidden="true" d="" display="none"/></g><g transform="translate(0,0)"><path class="background" aria-hidden="true" d="M0,0h800v500h-800Z"/><g><g class="mark-line role-mark layer_0_layer_0_marks" clip-path="url(#clip16)" role="graphics-symbol" aria-roledescription="line mark container"><path d="M760,370Z" stroke="#54a24b" stroke-width="2" stroke-dasharray="1,1"/></g></g><path class="foreground" aria-hidden="true" d="" display="none"/></g></g><g class="mark-symbol role-mark layer_0_layer_1_marks" clip-path="url(#clip17)" role="graphics-symbol" aria-roledescription="symbol mark container" pointer-events="none"><path transform="translate(40,405.71428571428567)" d="M2.7386127875258306,0A2.7386127875258306,2.7386127875258306,0,1,1,-2.7386127875258306,0A2.7386127875258306,2.7386127875258306,0,1,1,2.7386127875258306,0" fill="#f58518" stroke-width="2" stroke-dasharray="2,1" opacity="1"/><path transform="translate(40,194.28571428571428)" d="M2.7386127875258306,0A2.7386127875258306,2.7386127875258306,0,1,1,-2.7386127875258306,0A2.7386127875258306,2.7386127875258306,0,1,1,2.7386127875258306,0" fill="#4c78a8" stroke-width="2" stroke-dasharray="1,0" opacity="1"/><path transform="translate(40,454.2857142857143)" d="M2.7386127875258306,0A2.7386127875258306,2.7386127875258306,0,1,1,-2.7386127875258306,0A2.7386127875258306,2.7386127875258306,0,1,1,2.7386127875258306,0" fill="#eeca3b" stroke-width="2" stroke-dasharray="4,2" opacity="1"/><path transform="translate(120,391.42857142857144)" d="M2.7386127875258306,0A2.7386127875258306,2.7386127875258306,0,1,1,-2.7386127875258306,0A2.7386127875258306,2.7386127875258306,0,1,1,2.7386127875258306,0" fill="#f58518" stroke-width="2" stroke-dasharray="2,1" opacity="1"/><path transform="translate(120,24.2857142857143)" d="M2.7386127875258306,0A2.7386127875258306,2.7386127875258306,0,1,1,-2.7386127875258306,0A2.7386127875258306,2.7386127875258306,0,1,1,2.7386127875258306,0" fill="#4c78a8" stroke-width="2" stroke-dasharray="1,0" opacity="1"/><path transform="translate(120,447.1428571428571)" d="M2.7386127875258306,0A2.7386127875258306,2.7386127875258306,0,1,1,-2.7386127875258306,0A2.7386127875258306,2.7386127875258306,0,1,1,2.7386127875258306,0" fill="#eeca3b" stroke-width="2" stroke-dasharray="4,2" opacity="1"/><path transform="translate(200,410.00000000000006)" d="M2.7386127875258306,0A2.7386127875258306,2.7386127875258306,0,1,1,-2.7386127875258306,0A2.7386127875258306,2.7386127875258306,0,1,1,2.7386127875258306,0" fill="#f58518" stroke-width="2" stroke-dasharray="2,1" opacity="1"/><path transform="translate(200,351.42857142857144)" d="M2.7386127875258306,0A2.7386127875258306,2.7386127875258306,0,1,1,-2.7386127875258306,0A2.7386127875258306,2.7386127875258306,0,1,1,2.7386127875258306,0" fill="#e45756" stroke-width="2" stroke-dasharray="1,2,4,2" opacity="1"/><path transform="translate(200,135.71428571428572)" d="M2.7386127875258306,0A2.7386127875258306,2.7386127875258306,0,1,1,-2.7386127875258306,0A2.7386127875258306,2.7386127875258306,0,1,1,2.7386127875258306,0" fill="#4c78a8" stroke-width="2" stroke-dasharray="1,0" opacity="1"/><path transform="translate(200,477.14285714285717)" d="M2.7386127875258306,0A2.7386127875258306,2.7386127875258306,0,1,1,-2.7386127875258306,0A2.7386127875258306,2.7386127875258306,0,1,1,2.7386127875258306,0" fill="#eeca3b" stroke-width="2" stroke-dasharray="4,2" opacity="1"/><path transform="translate(280,327.14285714285717)" d="M2.7386127875258306,0A2.7386127875258306,2.7386127875258306,0,1,1,-2.7386127875258306,0A2.7386127875258306,2.7386127875258306,0,1,1,2.7386127875258306,0" fill="#72b7b2" stroke-width="2" stroke-dasharray="4,2" opacity="1"/><path transform="translate(280,318.57142857142856)" d="M2.7386127875258306,0A2.7386127875258306,2.7386127875258306,0,1,1,-2.7386127875258306,0A2.7386127875258306,2.7386127875258306,0,1,1,2.7386127875258306,0" fill="#f58518" stroke-width="2" stroke-dasharray="2,1" opacity="1"/><path transform="translate(280,422.8571428571429)" d="M2.7386127875258306,0A2.7386127875258306,2.7386127875258306,0,1,1,-2.7386127875258306,0A2.7386127875258306,2.7386127875258306,0,1,1,2.7386127875258306,0" fill="#e45756" stroke-width="2" stroke-dasharray="1,2,4,2" opacity="1"/><path transform="translate(280,70)" d="M2.7386127875258306,0A2.7386127875258306,2.7386127875258306,0,1,1,-2.7386127875258306,0A2.7386127875258306,2.7386127875258306,0,1,1,2.7386127875258306,0" fill="#4c78a8" stroke-width="2" stroke-dasharray="1,0" opacity="1"/><path transform="translate(360,324.2857142857143)" d="M2.7386127875258306,0A2.7386127875258306,2.7386127875258306,0,1,1,-2.7386127875258306,0A2.7386127875258306,2.7386127875258306,0,1,1,2.7386127875258306,0" fill="#72b7b2" stroke-width="2" stroke-dasharray="4,2" opacity="1"/><path transform="translate(360,298.5714285714286)" d="M2.7386127875258306,0A2.7386127875258306,2.7386127875258306,0,1,1,-2.7386127875258306,0A2.7386127875258306,2.7386127875258306,0,1,1,2.7386127875258306,0" fill="#f58518" stroke-width="2" stroke-dasharray="2,1" opacity="1"/><path transform="translate(360,421.42857142857144)" d="M2.7386127875258306,0A2.7386127875258306,2.7386127875258306,0,1,1,-2.7386127875258306,0A2.7386127875258306,2.7386127875258306,0,1,1,2.7386127875258306,0" fill="#e45756" stroke-width="2" stroke-dasharray="1,2,4,2" opacity="1"/><path transform="translate(360,20.000000000000018)" d="M2.7386127875258306,0A2.7386127875258306,2.7386127875258306,0,1,1,-2.7386127875258306,0A2.7386127875258306,2.7386127875258306,0,1,1,2.7386127875258306,0" fill="#4c78a8" stroke-width="2" stroke-dasharray="1,0" opacity="1"/><path transform="translate(440,458.57142857142856)" d="M2.7386127875258306,0A2.7386127875258306,2.7386127875258306,0,1,1,-2.7386127875258306,0A2.7386127875258306,2.7386127875258306,0,1,1,2.7386127875258306,0" fill="#72b7b2" stroke-width="2" stroke-dasharray="4,2" opacity="1"/><path transform="translate(440,381.42857142857144)" d="M2.7386127875258306,0A2.7386127875258306,2.7386127875258306,0,1,1,-2.7386127875258306,0A2.7386127875258306,2.7386127875258306,0,1,1,2.7386127875258306,0" fill="#f58518" stroke-width="2" stroke-dasharray="2,1" opacity="1"/><path transform="translate(440,435.7142857142857)" d="M2.7386127875258306,0A2.7386127875258306,2.7386127875258306,0,1,1,-2.7386127875258306,0A2.7386127875258306,2.7386127875258306,0,1,1,2.7386127875258306,0" fill="#e45756" stroke-width="2" stroke-dasharray="1,2,4,2" opacity="1"/><path transform="translate(440,120)" d="M2.7386127875258306,0A2.7386127875258306,2.7386127875258306,0,1,1,-2.7386127875258306,0A2.7386127875258306,2.7386127875258306,0,1,1,2.7386127875258306,0" fill="#4c78a8" stroke-width="2" stroke-dasharray="1,0" opacity="1"/><path transform="translate(520,444.2857142857143)" d="M2.7386127875258306,0A2.7386127875258306,2.7386127875258306,0,1,1,-2.7386127875258306,0A2.7386127875258306,2.7386127875258306,0,1,1,2.7386127875258306,0" fill="#72b7b2" stroke-width="2" stroke-dasharray="4,2" opacity="1"/><path transform="translate(520,392.85714285714283)" d="M2.7386127875258306,0A2.7386127875258306,2.7386127875258306,0,1,1,-2.7386127875258306,0A2.7386127875258306,2.7386127875258306,0,1,1,2.7386127875258306,0" fill="#f58518" stroke-width="2" stroke-dasharray="2,1" opacity="1"/><path transform="translate(520,437.14285714285717)" d="M2.7386127875258306,0A2.7386127875258306,2.7386127875258306,0,1,1,-2.7386127875258306,0A2.7386127875258306,2.7386127875258306,0,1,1,2.7386127875258306,0" fill="#e45756" stroke-width="2" stroke-dasharray="1,2,4,2" opacity="1"/><path transform="translate(520,168.57142857142858)" d="M2.7386127875258306,0A2.7386127875258306,2.7386127875258306,0,1,1,-2.7386127875258306,0A2.7386127875258306,2.7386127875258306,0,1,1,2.7386127875258306,0" fill="#4c78a8" stroke-width="2" stroke-dasharray="1,0" opacity="1"/><path transform="translate(600,445.7142857142857)" d="M2.7386127875258306,0A2.7386127875258306,2.7386127875258306,0,1,1,-2.7386127875258306,0A2.7386127875258306,2.7386127875258306,0,1,1,2.7386127875258306,0" fill="#72b7b2" stroke-width="2" stroke-dasharray="4,2" opacity="1"/><path transform="translate(600,382.85714285714283)" d="M2.7386127875258306,0A2.7386127875258306,2.7386127875258306,0,1,1,-2.7386127875258306,0A2.7386127875258306,2.7386127875258306,0,1,1,2.7386127875258306,0" fill="#f58518" stroke-width="2" stroke-dasharray="2,1" opacity="1"/><path transform="translate(600,454.2857142857143)" d="M2.7386127875258306,0A2.7386127875258306,2.7386127875258306,0,1,1,-2.7386127875258306,0A2.7386127875258306,2.7386127875258306,0,1,1,2.7386127875258306,0" fill="#e45756" stroke-width="2" stroke-dasharray="1,2,4,2" opacity="1"/><path transform="translate(600,158.57142857142858)" d="M2.7386127875258306,0A2.7386127875258306,2.7386127875258306,0,1,1,-2.7386127875258306,0A2.7386127875258306,2.7386127875258306,0,1,1,2.7386127875258306,0" fill="#4c78a8" stroke-width="2" stroke-dasharray="1,0" opacity="1"/><path transform="translate(680,497.14285714285717)" d="M2.7386127875258306,0A2.7386127875258306,2.7386127875258306,0,1,1,-2.7386127875258306,0A2.7386127875258306,2.7386127875258306,0,1,1,2.7386127875258306,0" fill="#72b7b2" stroke-width="2" stroke-dasharray="4,2" opacity="1"/><path transform="translate(680,421.42857142857144)" d="M2.7386127875258306,0A2.7386127875258306,2.7386127875258306,0,1,1,-2.7386127875258306,0A2.7386127875258306,2.7386127875258306,0,1,1,2.7386127875258306,0" fill="#f58518" stroke-width="2" stroke-dasharray="2,1" opacity="1"/><path transform="translate(680,454.2857142857143)" d="M2.7386127875258306,0A2.7386127875258306,2.7386127875258306,0,1,1,-2.7386127875258306,0A2.7386127875258306,2.7386127875258306,0,1,1,2.7386127875258306,0" fill="#e45756" stroke-width="2" stroke-dasharray="1,2,4,2" opacity="1"/><path transform="translate(680,231.42857142857142)" d="M2.7386127875258306,0A2.7386127875258306,2.7386127875258306,0,1,1,-2.7386127875258306,0A2.7386127875258306,2.7386127875258306,0,1,1,2.7386127875258306,0" fill="#4c78a8" stroke-width="2" stroke-dasharray="1,0" opacity="1"/><path transform="translate(760,457.1428571428571)" d="M2.7386127875258306,0A2.7386127875258306,2.7386127875258306,0,1,1,-2.7386127875258306,0A2.7386127875258306,2.7386127875258306,0,1,1,2.7386127875258306,0" fill="#b279a2" stroke-width="2" stroke-dasharray="1,0" opacity="1"/><path transform="translate(760,370)" d="M2.7386127875258306,0A2.7386127875258306,2.7386127875258306,0,1,1,-2.7386127875258306,0A2.7386127875258306,2.7386127875258306,0,1,1,2.7386127875258306,0" fill="#54a24b" stroke-width="2" stroke-dasharray="1,1" opacity="1"/><path transform="translate(760,458.57142857142856)" d="M2.7386127875258306,0A2.7386127875258306,2.7386127875258306,0,1,1,-2.7386127875258306,0A2.7386127875258306,2.7386127875258306,0,1,1,2.7386127875258306,0" fill="#e45756" stroke-width="2" stroke-dasharray="1,2,4,2" opacity="1"/><path transform="translate(760,398.57142857142856)" d="M2.7386127875258306,0A2.7386127875258306,2.7386127875258306,0,1,1,-2.7386127875258306,0A2.7386127875258306,2.7386127875258306,0,1,1,2.7386127875258306,0" fill="#4c78a8" stroke-width="2" stroke-dasharray="1,0" opacity="1"/></g><g class="mark-text role-mark layer_1_marks" clip-path="url(#clip18)" role="graphics-object" aria-roledescription="text mark container" pointer-events="none"><text text-anchor="middle" transform="translate(40,398.71428571428567)" font-family="sans-serif" font-size="11px" fill="#f58518">66</text><text text-anchor="middle" transform="translate(40,187.28571428571428)" font-family="sans-serif" font-size="11px" fill="#4c78a8">214</text><text text-anchor="middle" transform="translate(40,447.2857142857143)" font-family="sans-serif" font-size="11px" fill="#eeca3b">32</text><text text-anchor="middle" transform="translate(120,384.42857142857144)" font-family="sans-serif" font-size="11px" fill="#f58518">76</text><text text-anchor="middle" transform="translate(120,17.2857142857143)" font-family="sans-serif" font-size="11px" fill="#4c78a8">333</text><text text-anchor="middle" transform="translate(120,440.1428571428571)" font-family="sans-serif" font-size="11px" fill="#eeca3b">37</text><text text-anchor="middle" transform="translate(200,403.00000000000006)" font-family="sans-serif" font-size="11px" fill="#f58518">63</text><text text-anchor="middle" transform="translate(200,344.42857142857144)" font-family="sans-serif" font-size="11px" fill="#e45756">104</text><text text-anchor="middle" transform="translate(200,128.71428571428572)" font-family="sans-serif" font-size="11px" fill="#4c78a8">255</text><text text-anchor="middle" transform="translate(200,470.14285714285717)" font-family="sans-serif" font-size="11px" fill="#eeca3b">16</text><text text-anchor="middle" transform="translate(280,320.14285714285717)" font-family="sans-serif" font-size="11px" fill="#72b7b2">121</text><text text-anchor="middle" transform="translate(280,311.57142857142856)" font-family="sans-serif" font-size="11px" fill="#f58518">127</text><text text-anchor="middle" transform="translate(280,415.8571428571429)" font-family="sans-serif" font-size="11px" fill="#e45756">54</text><text text-anchor="middle" transform="translate(280,63)" font-family="sans-serif" font-size="11px" fill="#4c78a8">301</text><text text-anchor="middle" transform="translate(360,317.2857142857143)" font-family="sans-serif" font-size="11px" fill="#72b7b2">123</text><text text-anchor="middle" transform="translate(360,291.5714285714286)" font-family="sans-serif" font-size="11px" fill="#f58518">141</text><text text-anchor="middle" transform="translate(360,414.42857142857144)" font-family="sans-serif" font-size="11px" fill="#e45756">55</text><text text-anchor="middle" transform="translate(360,13.000000000000018)" font-family="sans-serif" font-size="11px" fill="#4c78a8">336</text><text text-anchor="middle" transform="translate(440,451.57142857142856)" font-family="sans-serif" font-size="11px" fill="#72b7b2">29</text><text text-anchor="middle" transform="translate(440,374.42857142857144)" font-family="sans-serif" font-size="11px" fill="#f58518">83</text><text text-anchor="middle" transform="translate(440,428.7142857142857)" font-family="sans-serif" font-size="11px" fill="#e45756">45</text><text text-anchor="middle" transform="translate(440,113)" font-family="sans-serif" font-size="11px" fill="#4c78a8">266</text><text text-anchor="middle" transform="translate(520,437.2857142857143)" font-family="sans-serif" font-size="11px" fill="#72b7b2">39</text><text text-anchor="middle" transform="translate(520,385.85714285714283)" font-family="sans-serif" font-size="11px" fill="#f58518">75</text><text text-anchor="middle" transform="translate(520,430.14285714285717)" font-family="sans-serif" font-size="11px" fill="#e45756">44</text><text text-anchor="middle" transform="translate(520,161.57142857142858)" font-family="sans-serif" font-size="11px" fill="#4c78a8">232</text><text text-anchor="middle" transform="translate(600,438.7142857142857)" font-family="sans-serif" font-size="11px" fill="#72b7b2">38</text><text text-anchor="middle" transform="translate(600,375.85714285714283)" font-family="sans-serif" font-size="11px" fill="#f58518">82</text><text text-anchor="middle" transform="translate(600,447.2857142857143)" font-family="sans-serif" font-size="11px" fill="#e45756">32</text><text text-anchor="middle" transform="translate(600,151.57142857142858)" font-family="sans-serif" font-size="11px" fill="#4c78a8">239</text><text text-anchor="middle" transform="translate(680,490.14285714285717)" font-family="sans-serif" font-size="11px" fill="#72b7b2">2</text><text text-anchor="middle" transform="translate(680,414.42857142857144)" font-family="sans-serif" font-size="11px" fill="#f58518">55</text><text text-anchor="middle" transform="translate(680,447.2857142857143)" font-family="sans-serif" font-size="11px" fill="#e45756">32</text><text text-anchor="middle" transform="translate(680,224.42857142857142)" font-family="sans-serif" font-size="11px" fill="#4c78a8">188</text><text text-anchor="middle" transform="translate(760,450.1428571428571)" font-family="sans-serif" font-size="11px" fill="#b279a2">30</text><text text-anchor="middle" transform="translate(760,363)" font-family="sans-serif" font-size="11px" fill="#54a24b">91</text><text text-anchor="middle" transform="translate(760,451.57142857142856)" font-family="sans-serif" font-size="11px" fill="#e45756">29</text><text text-anchor="middle" transform="translate(760,391.57142857142856)" font-family="sans-serif" font-size="11px" fill="#4c78a8">71</text></g><g class="mark-group role-legend" role="graphics-symbol" aria-roledescription="legend" aria-label="Symbol legend titled 'FieldAlias' for fill color and stroke color with 7 values: Rhetoric/Composition, Generalist, New Media and Digital Humanities, Community Colleges, Humanities and Social Sciences Postdocs, TESOL/Applied Linguistics, Communication and Media Studies"><g transform="translate(818,0)"><path class="background" aria-hidden="true" d="M0,0h172v125h-172Z" pointer-events="none"/><g><g class="mark-group role-legend-entry"><g transform="translate(0,16)"><path class="background" aria-hidden="true" d="M0,0h0v0h0Z" pointer-events="none"/><g><g class="mark-group role-scope" role="graphics-object" aria-roledescription="group mark container"><g transform="translate(0,0)"><path class="background" aria-hidden="true" d="M0,0h171.6298828125v12.5h-171.6298828125Z" pointer-events="none" opacity="1"/><g><g class="mark-symbol role-legend-symbol" pointer-events="none"><path transform="translate(6,6)" d="M5,0A5,5,0,1,1,-5,0A5,5,0,1,1,5,0" fill="#4c78a8" stroke="#4c78a8" stroke-width="1.5" opacity="1"/></g><g class="mark-text role-legend-label" pointer-events="none"><text text-anchor="start" transform="translate(16,9)" font-family="sans-serif" font-size="10px" fill="#000" opacity="1">Rhetoric/Composition</text></g></g><path class="foreground" aria-hidden="true" d="" pointer-events="none" display="none"/></g><g transform="translate(0,16)"><path class="background" aria-hidden="true" d="M0,0h171.6298828125v12.5h-171.6298828125Z" pointer-events="none" opacity="1"/><g><g class="mark-symbol role-legend-symbol" pointer-events="none"><path transform="translate(6,6)" d="M5,0A5,5,0,1,1,-5,0A5,5,0,1,1,5,0" fill="#f58518" stroke="#f58518" stroke-width="1.5" opacity="1"/></g><g class="mark-text role-legend-label" pointer-events="none"><text text-anchor="start" transform="translate(16,9)" font-family="sans-serif" font-size="10px" fill="#000" opacity="1">Generalist</text></g></g><path class="foreground" aria-hidden="true" d="" pointer-events="none" display="none"/></g><g transform="translate(0,32)"><path class="background" aria-hidden="true" d="M0,0h171.6298828125v12.5h-171.6298828125Z" pointer-events="none" opacity="1"/><g><g class="mark-symbol role-legend-symbol" pointer-events="none"><path transform="translate(6,6)" d="M5,0A5,5,0,1,1,-5,0A5,5,0,1,1,5,0" fill="#e45756" stroke="#e45756" stroke-width="1.5" opacity="1"/></g><g class="mark-text role-legend-label" pointer-events="none"><text text-anchor="start" transform="translate(16,9)" font-family="sans-serif" font-size="10px" fill="#000" opacity="1">New Media and Digital Humanities</text></g></g><path class="foreground" aria-hidden="true" d="" pointer-events="none" display="none"/></g><g transform="translate(0,48)"><path class="background" aria-hidden="true" d="M0,0h171.6298828125v12.5h-171.6298828125Z" pointer-events="none" opacity="1"/><g><g class="mark-symbol role-legend-symbol" pointer-events="none"><path transform="translate(6,6)" d="M5,0A5,5,0,1,1,-5,0A5,5,0,1,1,5,0" fill="#72b7b2" stroke="#72b7b2" stroke-width="1.5" opacity="1"/></g><g class="mark-text role-legend-label" pointer-events="none"><text text-anchor="start" transform="translate(16,9)" font-family="sans-serif" font-size="10px" fill="#000" opacity="1">Community Colleges</text></g></g><path class="foreground" aria-hidden="true" d="" pointer-events="none" display="none"/></g><g transform="translate(0,64)"><path class="background" aria-hidden="true" d="M0,0h171.6298828125v12.5h-171.6298828125Z" pointer-events="none" opacity="1"/><g><g class="mark-symbol role-legend-symbol" pointer-events="none"><path transform="translate(6,6)" d="M5,0A5,5,0,1,1,-5,0A5,5,0,1,1,5,0" fill="#54a24b" stroke="#54a24b" stroke-width="1.5" opacity="1"/></g><g class="mark-text role-legend-label" pointer-events="none"><text text-anchor="start" transform="translate(16,9)" font-family="sans-serif" font-size="10px" fill="#000" opacity="1">Humanities and Social Sciences …</text></g></g><path class="foreground" aria-hidden="true" d="" pointer-events="none" display="none"/></g><g transform="translate(0,80)"><path class="background" aria-hidden="true" d="M0,0h171.6298828125v12.5h-171.6298828125Z" pointer-events="none" opacity="1"/><g><g class="mark-symbol role-legend-symbol" pointer-events="none"><path transform="translate(6,6)" d="M5,0A5,5,0,1,1,-5,0A5,5,0,1,1,5,0" fill="#eeca3b" stroke="#eeca3b" stroke-width="1.5" opacity="1"/></g><g class="mark-text role-legend-label" pointer-events="none"><text text-anchor="start" transform="translate(16,9)" font-family="sans-serif" font-size="10px" fill="#000" opacity="1">TESOL/Applied Linguistics</text></g></g><path class="foreground" aria-hidden="true" d="" pointer-events="none" display="none"/></g><g transform="translate(0,96)"><path class="background" aria-hidden="true" d="M0,0h171.6298828125v12.5h-171.6298828125Z" pointer-events="none" opacity="1"/><g><g class="mark-symbol role-legend-symbol" pointer-events="none"><path transform="translate(6,6)" d="M5,0A5,5,0,1,1,-5,0A5,5,0,1,1,5,0" fill="#b279a2" stroke="#b279a2" stroke-width="1.5" opacity="1"/></g><g class="mark-text role-legend-label" pointer-events="none"><text text-anchor="start" transform="translate(16,9)" font-family="sans-serif" font-size="10px" fill="#000" opacity="1">Communication and Media Studies</text></g></g><path class="foreground" aria-hidden="true" d="" pointer-events="none" display="none"/></g></g></g><path class="foreground" aria-hidden="true" d="" pointer-events="none" display="none"/></g></g><g class="mark-text role-legend-title" pointer-events="none"><text text-anchor="start" transform="translate(0,9)" font-family="sans-serif" font-size="11px" font-weight="bold" fill="#000" opacity="1">FieldAlias</text></g></g><path class="foreground" aria-hidden="true" d="" pointer-events="none" display="none"/></g></g></g><path class="foreground" aria-hidden="true" d="" display="none"/></g></g></g><defs><clipPath id="clip10"><rect x="0" y="0" width="800" height="500"/></clipPath><clipPath id="clip11"><rect x="0" y="0" width="800" height="500"/></clipPath><clipPath id="clip12"><rect x="0" y="0" width="800" height="500"/></clipPath><clipPath id="clip13"><rect x="0" y="0" width="800" height="500"/></clipPath><clipPath id="clip14"><rect x="0" y="0" width="800" height="500"/></clipPath><clipPath id="clip15"><rect x="0" y="0" width="800" height="500"/></clipPath><clipPath id="clip16"><rect x="0" y="0" width="800" height="500"/></clipPath><clipPath id="clip17"><rect x="0" y="0" width="800" height="500"/></clipPath><clipPath id="clip18"><rect x="0" y="0" width="800" height="500"/></clipPath></defs></svg>